<svg aria-hidden="true" style="position: absolute; width: 0; height: 0; overflow: hidden;" version="1.1" xmlns="http://www.w3.org/2000/svg" xmlns:xlink="http://www.w3.org/1999/xlink">
<defs>
<symbol id="icon-instagram" viewBox="0 0 32 32">
<path d="M31.897 9.445c-0.020-1.343-0.268-2.675-0.745-3.931-0.833-2.145-2.53-3.841-4.679-4.671-1.242-0.467-2.555-0.717-3.885-0.745-1.709-0.076-2.251-0.098-6.591-0.098s-4.896 0-6.593 0.098c-1.327 0.028-2.641 0.279-3.883 0.745-2.148 0.83-3.847 2.526-4.679 4.671-0.467 1.24-0.72 2.551-0.745 3.876-0.076 1.708-0.1 2.249-0.1 6.582s0 4.886 0.1 6.582c0.027 1.327 0.277 2.636 0.745 3.88 0.833 2.143 2.53 3.839 4.681 4.669 1.237 0.482 2.55 0.756 3.883 0.798 1.711 0.076 2.253 0.099 6.593 0.099s4.896 0 6.593-0.099c1.327-0.027 2.641-0.277 3.885-0.743 2.148-0.832 3.845-2.528 4.679-4.671 0.467-1.242 0.718-2.551 0.744-3.88 0.076-1.707 0.1-2.248 0.1-6.582-0.004-4.332-0.004-4.882-0.103-6.58zM15.988 24.164c-4.538 0-8.215-3.671-8.215-8.201s3.677-8.201 8.215-8.201c4.535 0 8.215 3.67 8.215 8.201s-3.68 8.201-8.215 8.201zM24.53 9.37c-1.061 0-1.916-0.855-1.916-1.912s0.855-1.912 1.916-1.912c1.057 0 1.914 0.855 1.914 1.912s-0.857 1.912-1.914 1.912z"></path>
</symbol>
<symbol id="icon-youtube" viewBox="0 0 41 32">
<path d="M32.343 1.714c-1.943-0.114-5.943-0.229-12-0.229h-0.8c-5.829 0-9.714 0.114-11.657 0.343-2.629 0.229-4.457 0.914-5.486 1.829-0.914 0.8-1.6 2.286-1.829 4.229-0.114 1.257-0.229 3.886-0.229 7.886v0.571c0 3.771 0.114 6.4 0.343 7.657 0.343 1.829 0.914 3.2 2.057 4 1.143 0.914 3.086 1.486 5.829 1.714 1.943 0.114 5.943 0.229 12 0.229h0.8c5.829 0 9.714-0.114 11.657-0.343 2.629-0.229 4.457-0.914 5.486-1.829 0.914-0.8 1.6-2.286 1.829-4.229 0.114-1.257 0.229-3.886 0.229-7.886v-0.571c0-3.771-0.114-6.4-0.343-7.657-0.343-1.829-0.914-3.2-2.057-4-1.143-0.914-3.086-1.486-5.829-1.714zM27.886 15.771l-12.571 7.543v-15.086l12.571 7.543z"></path>
</symbol>
<symbol id="icon-facebook" viewBox="0 0 13 32">
<path d="M11.093 1.92c0.32 0 0.64 0 1.28 0v4.8c-0.32 0-0.96 0-1.6 0s-1.28 0-1.6 0.32c-0.32 0.32-0.32 0.64-0.32 1.387 0 0.64 0 1.067 0 1.707h3.52v4.053h-3.52v17.6h-5.44v-17.707h-2.88v-4.053h2.88v-1.387c0-2.347 0.32-4.053 0.96-4.8 0.96-1.387 2.88-2.027 5.76-2.027 0.32 0.107 0.64 0.107 0.96 0.107z"></path>
</symbol>
<symbol id="icon-menu" viewBox="0 0 32 32">
<path stroke-linejoin="round" stroke-linecap="round" stroke-miterlimit="4" stroke-width="2.4" d="M4 11.333h24M4 20.667h24"></path>
</symbol>
<symbol id="icon-x-close" viewBox="0 0 32 32">
<path stroke-linejoin="round" stroke-linecap="round" stroke-miterlimit="4" stroke-width="2.4" d="M24 8l-16 16"></path>
<path stroke-linejoin="round" stroke-linecap="round" stroke-miterlimit="4" stroke-width="2.4" d="M8 8l16 16"></path>
</symbol>
</defs>
</svg>
